HIERARCHY
ROOT Hips
{
  OFFSET 3.25194 98.3306 -19.0826
  CHANNELS 6 Xposition Yposition Zposition Zrotation Xrotation Yrotation
  JOINT RightUpLeg
  {
    OFFSET -8.9458 -8.66707 0.101652
    CHANNELS 3 Zrotation Xrotation Yrotation
    JOINT RightLeg
    {
      OFFSET 0 -44.4227 1.3727
      CHANNELS 3 Zrotation Xrotation Yrotation
      JOINT RightFoot
      {
        OFFSET 0.253549 -42.0924 -1.46059
        CHANNELS 3 Zrotation Xrotation Yrotation
        JOINT RightToes
        {
          OFFSET 0.04 -4.41509 8.4991
          CHANNELS 3 Zrotation Xrotation Yrotation
          End Site
          {
            OFFSET -0.08 -0.137448 9.77979
          }
        }
      }
    }
  }
  JOINT Spine
  {
    OFFSET 0 11.8905 0
    CHANNELS 3 Zrotation Xrotation Yrotation
    JOINT Spine1
    {
      OFFSET 0 25.6574 0.127663
      CHANNELS 3 Zrotation Xrotation Yrotation
      JOINT HEad
      {
        OFFSET 0 8.73416 0.011341
        CHANNELS 3 Zrotation Xrotation Yrotation
        End Site
        {
          OFFSET -0.29 12.7742 2.51395
        }
      }
      JOINT LeftShoulder1
      {
        OFFSET 8.99 -0.362252 -0.22
        CHANNELS 3 Zrotation Xrotation Yrotation
        JOINT LeftArm
        {
          OFFSET 10.2827 -0.00337999 0.322123
          CHANNELS 3 Zrotation Xrotation Yrotation
          JOINT LeftForeArm
          {
            OFFSET 26.2597 0.099144 -1.42434
            CHANNELS 3 Zrotation Xrotation Yrotation
            JOINT LeftHand
            {
              OFFSET 22.0902 0.085362 1.02216
              CHANNELS 3 Zrotation Xrotation Yrotation
              End Site
              {
                OFFSET 13.419 -0.6 1.50291
              }
            }
          }
        }
      }
      JOINT RightShoulder
      {
        OFFSET -8.99 -0.362252 -0.22
        CHANNELS 3 Zrotation Xrotation Yrotation
        JOINT RightArm
        {
          OFFSET -10.2827 -0.00338 0.322123
          CHANNELS 3 Zrotation Xrotation Yrotation
          JOINT RightForeArm
          {
            OFFSET -26.364 0.099144 -1.42434
            CHANNELS 3 Zrotation Xrotation Yrotation
            JOINT RightHand
            {
              OFFSET -22.0324 0.085362 1.02216
              CHANNELS 3 Zrotation Xrotation Yrotation
              End Site
              {
                OFFSET -13.3284 -0.6 1.50291
              }
            }
          }
        }
      }
    }
  }
  JOINT LeftUpLeg
  {
    OFFSET 8.9458 -8.66707 0.101652
    CHANNELS 3 Zrotation Xrotation Yrotation
    JOINT LeftLeg
    {
      OFFSET 0 -44.4227 1.3727
      CHANNELS 3 Zrotation Xrotation Yrotation
      JOINT LeftFoot
      {
        OFFSET -0.253549 -42.0924 -1.46059
        CHANNELS 3 Zrotation Xrotation Yrotation
        JOINT LeftToes
        {
          OFFSET -0.04 -4.41509 8.4991
          CHANNELS 3 Zrotation Xrotation Yrotation
          End Site
          {
            OFFSET 0.08 -0.047448 9.77979
          }
        }
      }
    }
  }
}
MOTION
Frames:	20
Frame Time:	0.0166667
3.56858 100.986 -20.4383 -2.06178 4.26083 1.07398 2.94894 -3.16345 -3.37138 -0.0712699 15.2081 0.220304 -1.49132 -3.66961 -9.1924 -3.97569e-016 -1.59028e-015 1.59028e-015 4.05723 7.0246 2.25203 4.21258 -5.45622 0.914726 2.59683 -18.5973 -10.1991 -1.19271e-015 -1.59028e-015 1.19271e-015 -27.9261 -0.999876 -61.9224 28.0723 -30.8427 -68.3232 1.53274 -32.8224 5.20062 -1.19271e-015 -1.59028e-015 1.19271e-015 18.5582 -6.70963 59.6794 -27.4948 -28.2036 64.5052 -0.466278 -19.0553 -2.78189 3.81611 -6.76476 1.15338 0.0525422 20.7237 -0.192825 0.701884 -4.38077 -2.27522 -2.98177e-016 1.59028e-015 -0 
3.56708 100.576 -20.2175 -2.11446 3.85253 0.986028 2.99201 -2.63186 -3.43669 -0.0731253 15.4905 0.237047 -1.72709 -5.18525 -9.09815 3.53113e-031 -3.18055e-015 6.36111e-015 4.08869 6.54208 2.18128 4.07813 -5.7766 0.896453 2.69062 -17.3762 -10.0851 -6.95746e-016 0 3.97569e-016 -29.317 3.65682 -58.2656 28.2979 -32.86 -71.8432 1.32606 -30.8085 4.80767 -6.95746e-016 0 3.97569e-016 19.4954 -2.45944 56.6099 -27.8721 -29.8942 67.0794 -0.348479 -16.5428 -2.39243 3.8077 -6.26191 1.14882 0.0545475 21.1331 -0.208601 0.673945 -5.84165 -1.85799 1.2424e-016 0 -0 
3.576 100.185 -20.033 -2.15596 3.46295 0.999475 3.08086 -2.22789 -3.40715 -0.0767488 15.9777 0.254407 -1.95612 -6.49668 -9.27107 3.97569e-016 6.36111e-015 -0 4.07737 6.1142 2.0368 4.11376 -5.83029 0.856965 2.38997 -16.9327 -10.1397 7.70291e-016 -7.95139e-016 -1.19271e-015 -31.159 8.21688 -54.472 28.4077 -34.6413 -74.8507 1.15016 -28.9295 4.45524 7.70291e-016 -7.95139e-016 -1.19271e-015 20.8511 1.69836 53.3083 -28.172 -31.5792 69.5898 -0.255253 -14.2384 -2.04377 3.85033 -5.70649 1.19411 0.0566599 21.295 -0.220246 0.63887 -7.19098 -1.77207 1.04362e-015 -1.59028e-015 7.45443e-017 
3.58492 99.809 -19.8529 -2.23086 3.07592 1.01296 3.21122 -1.80603 -3.37777 -0.0795774 16.3025 0.269674 -2.17274 -7.65719 -9.47893 -3.97569e-016 0 1.59028e-015 4.06336 5.75545 1.87507 4.14755 -5.83803 0.806584 2.00949 -16.86 -10.2147 1.16786e-015 0 -3.97569e-016 -33.6137 12.7544 -50.4528 28.4292 -36.2535 -77.4347 1.00759 -27.2529 4.15181 1.16786e-015 0 -3.97569e-016 22.6353 5.90699 49.9814 -28.3076 -32.9775 72.0339 -0.188614 -12.2589 -1.75012 3.94794 -5.12531 1.23938 0.0580248 21.3926 -0.230109 0.615477 -8.44534 -1.65366 1.6093e-016 -3.18055e-015 2.48481e-017 
3.57345 99.4547 -19.6406 -2.41884 2.66634 0.914315 3.40229 -1.1902 -3.4386 -0.0792699 16.2399 0.278753 -2.33776 -8.59738 -9.5231 -0 0 3.18055e-015 4.3061 5.53238 1.75683 4.09125 -5.22206 0.748231 1.79229 -16.9719 -9.93389 7.95139e-016 7.95139e-016 -0 -36.8559 16.9978 -46.1817 28.3725 -37.4958 -79.5566 0.882236 -25.6525 3.87056 7.95139e-016 7.95139e-016 -0 24.6845 9.80223 46.9329 -28.3961 -34.2346 74.1192 -0.154844 -11.0262 -1.57005 4.08086 -4.49106 1.09069 0.0572132 21.5432 -0.239607 0.647955 -9.59441 -1.15661 1.00635e-015 -1.59028e-015 -0 
3.55753 99.1182 -19.4413 -2.61914 2.28449 0.771013 3.62024 -0.562125 -3.4998 -0.0781411 16.1273 0.285717 -2.49172 -9.44751 -9.56755 5.96354e-016 0 3.18055e-015 4.54719 5.37834 1.62554 4.01582 -4.60607 0.68762 1.74624 -17.0877 -9.56354 -6.21202e-016 7.95139e-016 -3.97569e-016 -40.6909 21.0027 -41.3917 28.2974 -38.392 -81.086 0.819934 -24.8027 3.72429 -6.21202e-016 7.95139e-016 -3.97569e-016 27.1494 13.6842 43.5778 -28.4329 -35.2208 75.7104 -0.119466 -9.78135 -1.38866 4.22086 -3.92361 0.893589 0.0563617 21.7298 -0.248665 0.7223 -10.6375 -0.501749 -8.07563e-016 -3.18055e-015 -9.93923e-017 
3.55428 98.7919 -19.294 -2.7225 1.98189 0.689988 3.80729 -0.0647506 -3.24992 -0.0762811 16.022 0.293501 -2.69371 -10.3681 -9.80268 -7.95139e-016 0 -1.59028e-015 4.47696 5.25376 1.42368 3.9808 -4.82441 0.63254 1.94463 -16.6308 -9.44892 -1.21756e-015 7.95139e-016 -3.97569e-016 -45.0039 25.0248 -35.7545 28.2459 -38.7922 -81.8161 0.826749 -24.8949 3.74015 -1.21756e-015 7.95139e-016 -3.97569e-016 30.3782 18.1879 39.3381 -28.4301 -35.6884 76.5215 -0.0595588 -7.16052 -1.01147 4.30352 -3.57614 0.854135 0.0577969 22.0239 -0.258197 0.8336 -11.549 0.227684 5.46658e-016 1.59028e-015 -1.98785e-016 
3.54931 98.4946 -19.1812 -2.83474 1.72979 0.653798 4.03917 0.362519 -2.86108 -0.0754495 15.9016 0.300722 -2.92518 -11.1844 -10.2219 -3.97569e-016 -7.95139e-016 -1.59028e-015 4.40612 5.14372 1.21543 3.95475 -5.04274 0.578539 2.2381 -16.1707 -9.39874 1.00635e-015 -7.95139e-016 -0 -50.0476 28.4672 -29.6836 28.2421 -38.8854 -81.9468 0.850289 -25.2214 3.7961 1.00635e-015 -7.95139e-016 -0 34.3801 22.495 34.7447 -28.4348 -35.8246 76.7155 -0.0365194 -5.39699 -0.761114 4.41071 -3.32187 0.827866 0.0596039 22.2782 -0.266698 0.952863 -12.3928 0.876608 2.98177e-016 4.77083e-015 3.97569e-016 
3.49816 98.2519 -19.1147 -3.10692 1.51746 0.696444 4.50828 0.740716 -2.55423 -0.0760252 15.7209 0.306692 -3.18645 -11.715 -10.9172 3.97569e-016 0 1.59028e-015 4.51141 5.02302 1.02076 3.93563 -4.73906 0.510364 2.4706 -16.5263 -9.35993 -6.27414e-016 0 -3.97569e-016 -55.761 30.8461 -23.814 28.2996 -38.3024 -80.972 0.91303 -26.0661 3.9422 -6.27414e-016 0 -3.97569e-016 38.8682 25.6444 30.2385 -28.4293 -35.4928 76.197 -0.0375776 -5.47175 -0.771733 4.69423 -3.09909 0.712617 0.06018 22.361 -0.272482 1.02826 -13.2376 1.19337 1.04362e-015 -3.18055e-015 -3.97569e-016 
3.45317 98.0355 -19.0455 -3.29332 1.34239 0.739103 4.8313 1.04411 -2.38659 -0.0768036 15.6054 0.312262 -3.38876 -12.1544 -11.3947 -5.96354e-016 7.95139e-016 -4.77083e-015 4.6086 4.88326 0.914821 3.90961 -4.43535 0.469506 2.76091 -16.8808 -9.34701 -4.53478e-016 -3.97569e-016 -0 -61.8041 32.2131 -17.8615 28.3984 -37.1094 -78.8823 0.961271 -26.6765 4.04958 -4.53478e-016 -3.97569e-016 -0 43.8093 28.0248 25.4727 -28.4203 -34.7261 74.8926 -0.0404502 -5.68325 -0.801728 4.89132 -2.86556 0.606342 0.0608977 22.3728 -0.276972 1.08402 -14.0511 1.37518 5.51738e-033 -7.95139e-016 3.97569e-016 
3.46108 97.8091 -18.9 -3.21853 1.20998 0.58153 4.72367 1.23261 -2.44233 -0.0788364 15.6997 0.31839 -3.48259 -12.6727 -11.3656 -3.97569e-016 1.59028e-015 -0 4.41804 4.64934 1.02504 3.83427 -4.47218 0.494907 3.22338 -16.7826 -9.51692 -6.4605e-016 -3.97569e-016 -0 -67.8986 32.806 -11.584 28.4162 -35.5309 -76.4088 0.916183 -26.0744 3.9446 -6.4605e-016 -3.97569e-016 -0 49.3531 29.9315 20.1784 -28.3592 -33.5716 73.0268 -0.0448622 -5.96429 -0.841609 4.74327 -2.51422 0.588263 0.0617248 22.283 -0.281054 1.13551 -14.8788 1.51943 -7.45443e-017 0 -0 
3.48062 97.6228 -18.7632 -3.14453 1.08567 0.423976 4.56857 1.37048 -2.55233 -0.0811369 15.8626 0.324046 -3.54717 -13.1397 -11.2684 -5.96354e-016 -7.95139e-016 1.59028e-015 4.1545 4.49636 1.13534 3.77961 -4.50901 0.520311 3.47801 -16.6796 -9.78783 8.57259e-016 0 -3.97569e-016 -73.6148 32.3609 -5.90035 28.3725 -33.7468 -73.2862 0.803627 -24.5749 3.68523 8.57259e-016 0 -3.97569e-016 54.9481 31.0156 14.8793 -28.2221 -32.1316 70.6657 -0.0526028 -6.49097 -0.916359 4.53881 -2.17795 0.570222 0.0622912 22.1933 -0.284413 1.18966 -15.5523 1.68003 7.20594e-016 1.59028e-015 3.97569e-016 
3.51674 97.5196 -18.7085 -3.15014 0.922496 0.543545 4.51703 1.54656 -2.67273 -0.0831368 15.9962 0.329074 -3.57757 -13.5132 -11.1219 -3.97569e-016 0 -0 4.07606 4.62493 0.962353 3.86881 -4.30501 0.469174 3.33069 -17.1093 -9.98332 9.50439e-016 -1.98785e-016 -0 -78.5113 30.5379 -1.89253 28.2355 -31.6464 -69.3328 0.63625 -22.1221 3.27325 9.50439e-016 -1.98785e-016 -0 59.9339 31.0421 10.1672 -27.9917 -30.4553 67.8888 -0.0746613 -7.80782 -1.10403 4.44457 -1.97361 0.320054 0.0632255 22.2119 -0.287373 1.28398 -15.8484 2.04357 -1.2424e-016 -7.95139e-016 -0 
3.54632 97.4853 -18.6972 -3.16424 0.763242 0.708563 4.4936 1.64714 -2.82144 -0.084658 16.1534 0.331813 -3.56523 -13.7322 -10.9337 1.98785e-016 -7.95139e-016 -3.18055e-015 4.04198 4.82329 0.789393 4.0034 -4.10099 0.41807 3.11045 -17.8195 -10.2117 3.47873e-016 -1.98785e-016 1.98785e-016 -82.5428 27.9859 1.21847 27.6631 -28.8692 -65.4469 0.490534 -19.4928 2.85143 3.47873e-016 -1.98785e-016 1.98785e-016 64.3658 30.2515 5.97025 -27.5757 -28.4818 64.8303 -0.0952903 -8.74215 -1.23823 4.407 -1.84213 0.00840435 0.063739 22.2537 -0.288866 1.34974 -15.9762 2.31023 -1.2424e-016 0 3.97569e-016 
3.55077 97.4896 -18.7396 -3.1921 0.616309 0.75215 4.48421 1.61456 -3.01048 -0.0861125 16.4175 0.332134 -3.50476 -13.7769 -10.6902 -3.97569e-016 7.95139e-016 1.59028e-015 4.00872 4.97412 0.864504 4.07336 -4.11 0.442575 2.86612 -18.4949 -10.5135 -4.96962e-016 0 -1.98785e-016 -85.7209 25.0327 4.06334 26.9074 -26.1189 -61.2762 0.390772 -17.4837 2.53749 -4.96962e-016 0 -1.98785e-016 68.2191 28.8668 2.41074 -26.9782 -26.2584 61.2249 -0.0948162 -8.72169 -1.23534 4.43961 -1.76243 -0.108507 0.0639193 22.3279 -0.289013 1.35692 -16.0887 2.33412 8.94531e-016 7.95139e-016 -3.97569e-016 
3.55312 97.4954 -18.8075 -3.21209 0.537849 0.787535 4.46202 1.56599 -3.21379 -0.0870113 16.5993 0.332094 -3.45235 -13.8027 -10.4912 3.97569e-016 0 -0 3.9341 5.05505 0.995289 4.13386 -4.14135 0.484063 2.66527 -18.8841 -10.8553 1.0312e-015 0 -0 -88.0626 21.9556 6.43919 26.012 -23.4608 -56.8075 0.32475 -15.9918 2.30872 1.0312e-015 0 -0 71.5685 26.9577 -0.765771 -26.1945 -23.9358 57.573 -0.0915562 -8.57845 -1.21509 4.47502 -1.73777 -0.137027 0.0639832 22.3789 -0.289075 1.35897 -16.1287 2.33781 5.46658e-016 0 -3.97569e-016 
3.55924 97.4964 -18.8577 -3.05129 0.552979 0.915611 4.26852 1.53407 -3.45377 -0.0868314 16.6108 0.331581 -3.44784 -13.8764 -10.4421 -3.97569e-016 -1.59028e-015 -1.59028e-015 3.63413 4.88809 1.1018 4.2277 -4.2084 0.515465 2.54127 -18.8272 -11.2934 4.16205e-016 0 3.97569e-016 -89.6704 19.1771 8.42464 24.9232 -20.9285 -52.7213 0.294939 -15.2417 2.19494 4.16205e-016 0 3.97569e-016 74.6053 24.5041 -3.93895 -25.3786 -21.9318 54.3403 -0.0669143 -7.42992 -1.05027 4.3318 -1.81703 -0.126368 0.0636984 22.3668 -0.288931 1.31485 -16.0944 2.1553 1.2424e-016 0 -0 
3.57028 97.4974 -18.9013 -2.89018 0.568112 1.00645 4.09808 1.51825 -3.59683 -0.0865566 16.6124 0.330913 -3.44961 -13.9272 -10.4226 -5.96354e-016 -7.95139e-016 1.59028e-015 3.3975 4.72108 1.23494 4.28804 -4.2798 0.553946 2.46505 -18.6746 -11.6454 -2.36057e-016 0 -0 -90.632 16.5125 9.91398 23.6461 -18.4475 -48.5022 0.286059 -15.0475 2.16498 -2.36057e-016 0 -0 77.0655 21.8886 -6.726 -24.5083 -20.0732 51.2489 -0.0433379 -5.91592 -0.834485 4.15481 -1.89629 -0.104267 0.0632825 22.3341 -0.288632 1.27096 -16.0599 1.97284 -2.48481e-017 0 3.97569e-016 
3.58545 97.5033 -18.9269 -2.91662 0.531845 0.82056 4.09399 1.56321 -3.43934 -0.0856487 16.5126 0.329978 -3.42826 -13.8743 -10.3743 -0 -7.95139e-016 -0 3.46205 4.72091 1.48556 4.2746 -4.33075 0.627279 2.35688 -18.2994 -11.7289 2.98177e-016 -1.98785e-016 3.97569e-016 -91.0166 13.9407 10.7036 22.0495 -15.8462 -43.8521 0.296586 -15.3245 2.20676 2.98177e-016 -1.98785e-016 3.97569e-016 78.9212 19.5292 -8.96338 -23.5657 -18.3041 48.2638 -0.0332324 -5.15949 -0.727384 4.13328 -1.80604 -0.0691628 0.0627613 22.2882 -0.288157 1.31073 -16.0716 2.15013 -3.97569e-016 2.38542e-015 -7.95139e-016 
3.61653 97.5131 -18.9581 -2.94249 0.495578 0.54232 4.08914 1.6082 -3.2638 -0.0847337 16.4128 0.328994 -3.38965 -13.774 -10.2893 1.19271e-015 1.59028e-015 -0 3.60338 4.72277 1.65381 4.22878 -4.355 0.676554 2.15248 -18.0299 -11.7261 -1.36664e-016 -3.97569e-016 3.97569e-016 -90.9904 11.3394 11.1244 20.1818 -13.2405 -39.1175 0.307533 -15.6015 2.24871 -1.36664e-016 -3.97569e-016 3.97569e-016 80.219 17.3155 -10.5965 -22.569 -16.6331 45.348 -0.0267331 -4.67375 -0.658658 4.11133 -1.6903 -0.0455017 0.0620417 22.2142 -0.287437 1.37728 -16.082 2.43876 -5.2181e-016 -7.95139e-016 -0 
